<svg xmlns="http://www.w3.org/2000/svg" width="400" height="400" enable-background="new 0 0 400 400" viewBox="0 0 400 400"><path fill="#FFBE55" d="M299.544,294.874c-2.176-3.807-7.341-5.167-11.148-2.992c-69.881,40.244-159.342,16.588-199.584-52.479
					C48.84,170.338,73.04,81.421,142.921,41.179c3.807-2.176,5.167-7.342,2.991-11.148c-2.175-3.808-7.342-5.167-11.148-2.992
					C56.997,71.904,30.077,170.881,74.671,247.561c27.735,47.857,76.408,75.864,128.072,79.67v22.297h-31.27
					c-6.797,0-12.236,5.438-12.236,12.236c0,6.798,5.438,12.236,12.236,12.236h78.855c6.798,0,12.236-5.438,12.236-12.236
					c0-6.797-5.438-12.236-12.236-12.236h-33.445h2.175v-21.753c26.375-0.544,53.023-7.614,77.496-21.753
					C300.36,303.575,301.72,298.681,299.544,294.874z"/><path fill="#2A94F4" d="M216.338,36.827c72.057,0,130.519,58.461,130.519,130.519s-58.462,130.519-130.519,130.519
					S85.82,239.404,85.82,167.346C85.82,95.289,144.281,36.827,216.338,36.827z"/><path fill="#0B4870" d="M313.684,254.358c8.974-34.805,17.13-85.109-8.701-79.398c-24.744,5.438-55.471,11.42-70.154,13.595
					c-14.683,2.175-32.357-12.508-52.207-23.113c-2.719-11.148-2.991-17.129,12.508-28.551
					c15.771-11.691,23.113,11.148,29.367,4.351c10.332-12.508,3.263-24.2,16.587-51.391c13.324-26.648,14.683-22.569,24.2-43.507
					c-14.956-5.982-31.542-9.517-48.944-9.517c-50.576,0-94.354,28.824-116.107,70.698c3.535,7.342,8.429,14.956,15.227,23.384
					c20.938,25.289,42.962,35.621,77.495,56.831c34.533,20.937,29.367,30.454,20.938,39.972
					c-8.429,9.517-21.481,50.304,3.264,63.083l11.148,6.798C262.02,294.329,292.203,278.287,313.684,254.358z"/></svg>